<svg width="38" height="38" viewBox="0 0 38 38" fill="none" xmlns="http://www.w3.org/2000/svg">
<circle cx="19" cy="19" r="19" fill="url(#paint0_linear)"/>
<path d="M24.7266 20.7773C24.7266 22.8086 24.293 24.3945 23.4258 25.5352C22.5586 26.668 21.3477 27.2344 19.793 27.2344C18.418 27.2344 17.3203 26.707 16.5 25.6523L16.3477 27H13.3008V9H16.6875V15.457C17.4688 14.543 18.4961 14.0859 19.7695 14.0859C21.3164 14.0859 22.5273 14.6562 23.4023 15.7969C24.2852 16.9297 24.7266 18.5273 24.7266 20.5898V20.7773ZM21.3398 20.5312C21.3398 19.25 21.1367 18.3164 20.7305 17.7305C20.3242 17.1367 19.7188 16.8398 18.9141 16.8398C17.8359 16.8398 17.0938 17.2812 16.6875 18.1641V23.168C17.1016 24.0586 17.8516 24.5039 18.9375 24.5039C20.0312 24.5039 20.75 23.9648 21.0938 22.8867C21.2578 22.3711 21.3398 21.5859 21.3398 20.5312Z" fill="white"/>
<path d="M26.6875 11.8633C26.6875 11.4883 26.7969 11.1758 27.0156 10.9258C27.2422 10.6758 27.5781 10.5508 28.0234 10.5508C28.4688 10.5508 28.8047 10.6758 29.0312 10.9258C29.2656 11.1758 29.3828 11.4883 29.3828 11.8633C29.3828 12.2227 29.2656 12.5234 29.0312 12.7656C28.8047 13.0078 28.4688 13.1289 28.0234 13.1289C27.5781 13.1289 27.2422 13.0078 27.0156 12.7656C26.7969 12.5234 26.6875 12.2227 26.6875 11.8633Z" fill="white"/>
<defs>
<linearGradient id="paint0_linear" x1="2.5" y1="15.5" x2="28.5" y2="29.5" gradientUnits="userSpaceOnUse">
<stop offset="0.282895" stop-color="#2DCECC"/>
<stop offset="1" stop-color="#2DCE89"/>
</linearGradient>
</defs>
</svg>
